<svg id="Layer_1" height="512" viewBox="0 0 512 512" width="512" xmlns="http://www.w3.org/2000/svg" data-name="Layer 1"><path d="m477.98 432.81a31.941 31.941 0 0 1 1.21 43.9c-.39.43-.79.85-1.21 1.25l-.02.03a31.946 31.946 0 0 1 -45.17 0l-93.44-93.4 8.91-8.9 27.59-27.59 8.7-8.69z" fill="#00acea"/><path d="m375.85 348.1-27.59 27.59-.01-.01-25.35-25.34-.04-.05a184.4 184.4 0 0 0 27.59-27.57l.04.03 25.35 25.34z" fill="#00efd1"/><path d="m391.04 207.77a182.275 182.275 0 0 1 -40.59 114.95 184.4 184.4 0 0 1 -27.59 27.57 182.413 182.413 0 0 1 -115.01 40.58c-101.17 0-183.19-81.98-183.19-183.1s82.02-183.11 183.19-183.11 183.19 81.98 183.19 183.11zm-46.74 0a136.455 136.455 0 1 0 -136.45 136.39 136.426 136.426 0 0 0 136.45-136.39z" fill="#fedb41"/><path d="m207.85 71.37a136.4 136.4 0 1 1 -136.46 136.4 136.426 136.426 0 0 1 136.46-136.4zm88.63 102.56c0-11.06-7.24-20.03-16.17-20.03s-16.17 8.97-16.17 20.03 7.24 20.04 16.17 20.04 16.17-8.97 16.17-20.04zm-28.48 67.5c0-36.7-25.97-66.44-58-66.44s-58 29.74-58 66.44 25.97 66.44 58 66.44 58-29.75 58-66.44zm-12.56-100.31c0-12.69-8.3-22.99-18.55-22.99s-18.55 10.3-18.55 22.99 8.3 22.99 18.55 22.99 18.55-10.29 18.55-22.99zm-53.78 0c0-12.69-8.3-22.99-18.55-22.99s-18.55 10.3-18.55 22.99 8.3 22.99 18.55 22.99 18.55-10.29 18.55-22.99zm-45.8 32.81c0-11.06-7.24-20.03-16.17-20.03s-16.17 8.97-16.17 20.03 7.24 20.04 16.17 20.04 16.17-8.97 16.17-20.04z" fill="#00acea"/><path d="m280.31 153.9c8.93 0 16.17 8.97 16.17 20.03s-7.24 20.04-16.17 20.04-16.17-8.97-16.17-20.04 7.24-20.03 16.17-20.03z" fill="#00efd1"/><ellipse cx="210" cy="241.43" fill="#00efd1" rx="58" ry="66.44"/><ellipse cx="236.89" cy="141.12" fill="#00efd1" rx="18.55" ry="22.99"/><ellipse cx="183.11" cy="141.12" fill="#00efd1" rx="18.55" ry="22.99"/><path d="m139.69 153.9c8.93 0 16.17 8.97 16.17 20.03s-7.24 20.04-16.17 20.04-16.17-8.97-16.17-20.04 7.24-20.03 16.17-20.03z" fill="#00efd1"/><g fill="#083863"><path d="m207.85 65.37c-78.553 0-142.46 63.88-142.46 142.4s63.91 142.39 142.46 142.39 142.45-63.876 142.45-142.39-63.9-142.4-142.45-142.4zm0 272.79c-71.936 0-130.46-58.493-130.46-130.39s58.524-130.4 130.46-130.4 130.45 58.5 130.45 130.4-58.52 130.39-130.45 130.39z"/><path d="m388.792 335.167a6 6 0 0 0 -8.482 0l-4.458 4.453-17.4-17.395a189.578 189.578 0 0 0 38.588-114.455c0-104.275-84.87-189.11-189.19-189.11s-189.19 84.84-189.19 189.11 84.87 189.1 189.19 189.1a189.706 189.706 0 0 0 114.515-38.581l17.4 17.4-4.66 4.658a6 6 0 0 0 0 8.488l93.474 93.434a37.913 37.913 0 0 0 53.588 0c.054-.053.106-.108.16-.165.415-.4.835-.843 1.3-1.359 13.437-14.8 12.788-38.226-1.41-52.176zm-358.132-127.397c0-97.659 79.487-177.11 177.19-177.11s177.19 79.451 177.19 177.11a177.005 177.005 0 0 1 -65.947 137.85 177.6 177.6 0 0 1 -111.243 39.25c-97.703 0-177.19-79.447-177.19-177.1zm301.066 142.907a191.071 191.071 0 0 0 19.109-19.1l16.528 16.523-19.107 19.1zm143.022 122c-.292.323-.591.639-.9.939-.083.079-.166.163-.247.251a25.989 25.989 0 0 1 -36.564-.119l-89.194-89.156 36.71-36.7 89.227 89.2a25.925 25.925 0 0 1 .968 35.584z"/><path d="m210 168.99c-35.29 0-64 32.5-64 72.44s28.71 72.44 64 72.44 64-32.5 64-72.44-28.71-72.44-64-72.44zm0 132.88c-28.673 0-52-27.113-52-60.44s23.327-60.44 52-60.44 52 27.114 52 60.44-23.327 60.44-52 60.44z"/><path d="m236.89 170.11c13.537 0 24.55-13.005 24.55-28.99s-11.013-28.99-24.55-28.99-24.55 13.005-24.55 28.99 11.013 28.99 24.55 28.99zm0-45.98c6.8 0 12.55 7.781 12.55 16.99s-5.747 16.99-12.55 16.99-12.55-7.78-12.55-16.99 5.747-16.99 12.55-16.99z"/><path d="m280.31 147.9c-12.225 0-22.17 11.677-22.17 26.03s9.945 26.04 22.17 26.04 22.17-11.681 22.17-26.04-9.946-26.03-22.17-26.03zm0 40.07c-5.513 0-10.17-6.429-10.17-14.04s4.657-14.03 10.17-14.03 10.17 6.425 10.17 14.03-4.657 14.04-10.17 14.04z"/><path d="m183.11 170.11c13.537 0 24.55-13.005 24.55-28.99s-11.013-28.99-24.55-28.99-24.55 13.005-24.55 28.99 11.013 28.99 24.55 28.99zm0-45.98c6.8 0 12.55 7.781 12.55 16.99s-5.747 16.99-12.55 16.99-12.55-7.78-12.55-16.99 5.747-16.99 12.55-16.99z"/><path d="m161.86 173.93c0-14.353-9.945-26.03-22.17-26.03s-22.17 11.677-22.17 26.03 9.946 26.04 22.17 26.04 22.17-11.681 22.17-26.04zm-22.17 14.04c-5.513 0-10.17-6.429-10.17-14.04s4.657-14.03 10.17-14.03 10.17 6.425 10.17 14.03-4.66 14.04-10.17 14.04z"/></g></svg>